<svg id="Capa_1" data-name="Capa 1" xmlns="http://www.w3.org/2000/svg" xmlns:xlink="http://www.w3.org/1999/xlink" viewBox="0 0 1080 912.4">
  <defs>
    <style>
      .cls-1 {
        fill: url(#Degradado_sin_nombre);
      }
    </style>
    <linearGradient id="Degradado_sin_nombre" data-name="Degradado sin nombre" x1="834.6" y1="250.2" x2="234.5" y2="850.35" gradientTransform="translate(0 876.58) scale(1 -1)" gradientUnits="userSpaceOnUse">
      <stop offset="0" stop-color="#9f17ff"/>
      <stop offset=".5" stop-color="#ff2c96"/>
      <stop offset="1" stop-color="#ff5f2e"/>
    </linearGradient>
  </defs>
  <path class="cls-1" d="m803.15,2.19c35.4,7.1,60.76,38.36,60.4,74.46v482.76c.1,18.13-5.28,35.87-15.45,50.88-9.98,15.19-24.4,26.92-41.3,33.61-10.91,4.39-22.57,6.63-34.32,6.59-23.58.27-46.3-8.88-63.11-25.41l-36.54-28.18,30.45-87.64,62.23,48.17c1.59,1.28,3.1,2.65,4.54,4.1.8,1.2,2.39,1.59,3.65.89,1.38-.42,2.31-1.71,2.27-3.16V150c-34.21,104.45-62.52,190.59-84.93,258.43l-65.38,187.57c-20.59,34.8-48.9,52.21-84.93,52.21h-1.38c-36.91,0-65.97-18.77-87.2-56.3-4.84-8.78-54.18-156.09-148.04-441.9v450.54c.12,23.97-19.21,43.5-43.18,43.63-.15,0-.3,0-.44,0-11.73.15-23.03-4.44-31.34-12.73-8.33-8.09-12.94-19.28-12.73-30.89V76.43c-.39-17.52,5.5-34.61,16.61-48.17,11.18-13.75,26.87-23.09,44.29-26.35,17.08-4.04,35.04-1.62,50.44,6.81,15.74,7.84,28.15,21.06,34.99,37.26.27,1.42.74,2.8,1.38,4.1,99.91,305.49,155.16,472.46,165.76,500.92,1.84,3.33,4.13,6.38,6.81,9.08,1.02.32,2.09.47,3.16.44,1.23.05,2.47-.1,3.65-.44,2.86-2.53,5.18-5.62,6.81-9.08,11.07-28.75,66.44-195.73,166.09-500.92.27-1.42.74-2.8,1.38-4.1,6.74-16.1,18.96-29.3,34.49-37.26,15.59-8.31,33.69-10.64,50.88-6.53Z"/>
  <path d="m85.37,893.03h-49.22l-5.54,15.94c-.39.7-1.14,1.11-1.94,1.05H2.16c-1.72,0-2.6-1.05-1.94-2.38l58.91-151.86c.59-1.07,1.94-1.46,3.01-.87.36.2.66.5.87.87l58.91,151.86c.66,1.27,0,2.38-1.72,2.38h-26.74c-.72,0-1.39-.41-1.72-1.05l-6.37-15.94Zm-39.7-25.47h30.39l-15.11-45.29-15.28,45.29Z"/>
  <path d="m314.24,822.72c1-.03,1.85.72,1.94,1.72v84.54c-.09,1-.94,1.75-1.94,1.72h-21.59c-1.11,0-2.16-.66-2.16-1.49l-.89-14.01c-10.1,11.61-24.99,17.91-40.36,17.05-40.75,0-72.69-28.23-72.69-77.51-1.04-41.75,31.96-76.44,73.72-77.49.75-.02,1.49-.03,2.24-.02,20.09-.18,39.4,7.81,53.48,22.15.72.52.88,1.52.36,2.24-.1.14-.22.26-.36.36l-17.27,17.27c-.83.66-2,.66-2.82,0-8.79-8.87-20.73-13.9-33.22-14.01-25.91,0-47,18.33-47,49.83,0,34.71,21.15,49.83,47,49.83,13.28-.05,25.91-5.77,34.71-15.72v-19.65h-24.25c-1.27,0-2.16-.66-2.16-1.49v-22.86c.14-1.06,1.1-1.81,2.16-1.72l51.1-.72Z"/>
  <path d="m419.7,786.45v34.1h59.35c1-.03,1.85.72,1.94,1.72v23.92c-.09,1-.94,1.75-1.94,1.72h-59.35v34.1h71.64c1.06-.1,2.02.66,2.16,1.72v24.58c-.14,1.06-1.1,1.81-2.16,1.72h-98.43c-1.06.1-2.02-.66-2.16-1.72v-147.65c.14-1.06,1.1-1.81,2.16-1.72h96.44c1.06-.1,2.02.66,2.16,1.72v23.97c-.14,1.06-1.1,1.81-2.16,1.72l-69.65.11Z"/>
  <path d="m687.99,908.36c-.14,1.06-1.1,1.81-2.16,1.72h-24.8c-.44,0-1.49,0-1.72-.66l-69.48-99.65v98.38c-.14,1.06-1.1,1.81-2.16,1.72h-24.8c-1,.03-1.85-.72-1.94-1.72v-147.49c.09-1,.94-1.75,1.94-1.72h25.02c.44,0,1.49,0,1.72.66l69.7,99.65v-98.6c.14-1.06,1.1-1.81,2.16-1.72h24.36c1.06-.1,2.02.66,2.16,1.72v147.71Z"/>
  <path d="m868.36,870.16c.91-.66,2.14-.66,3.04,0l17.27,17.49c.72.52.88,1.52.36,2.24-.1.14-.22.26-.36.36-14.13,14.27-33.4,22.25-53.48,22.15-41.85,0-76.12-30.17-76.12-77.51s31.72-77.51,76.12-77.51c20.09-.18,39.4,7.81,53.48,22.15.72.52.88,1.52.36,2.24-.1.14-.22.26-.36.36l-17.27,17.27c-.91.66-2.14.66-3.04,0-8.76-8.91-20.72-13.96-33.22-14.01-29.12,0-46.84,20.93-46.84,49.83,0,30.62,20.93,49.83,46.84,49.83,12.63-.28,24.61-5.65,33.22-14.89Z"/>
  <path d="m1077.8,759.05c1.94,0,2.82,1.49,1.72,2.82l-55.03,77.23v69.26c-.14,1.06-1.1,1.81-2.16,1.72h-24.58c-1.06.1-2.02-.66-2.16-1.72v-69.26c-18.1-25.91-36.87-51.54-55.03-77.23-1.05-1.27,0-2.82,1.72-2.82h30.01c.44,0,1.49,0,1.72.66l36.04,50.27,36.04-50.27c0-.44,1.11-.66,1.49-.66h30.23Z"/>
</svg>