<svg id="Capa_1" data-name="Capa 1" xmlns="http://www.w3.org/2000/svg" xmlns:xlink="http://www.w3.org/1999/xlink" viewBox="0 0 195.08 164.81">
  <defs>
    <style>
      .cls-3 {
        fill: #fff;
      }
      .cls-2 {
        fill: url(#Degradado_sin_nombre);
      }
    </style>
    <linearGradient id="Degradado_sin_nombre" data-name="Degradado sin nombre" x1="150.75" y1="49.54" x2="42.36" y2="157.94" gradientTransform="translate(0 162.68) scale(1 -1)" gradientUnits="userSpaceOnUse">
      <stop offset="0" stop-color="#9f17ff"/>
      <stop offset=".5" stop-color="#ff2c96"/>
      <stop offset="1" stop-color="#ff5f2e"/>
    </linearGradient>
  </defs>
  <path class="cls-2" d="m145.07.39c6.39,1.28,10.97,6.93,10.91,13.45v87.2c.02,3.27-.95,6.48-2.79,9.19-1.8,2.74-4.41,4.86-7.46,6.07-1.97.79-4.08,1.2-6.2,1.19-4.26.05-8.36-1.6-11.4-4.59l-6.6-5.09,5.5-15.83,11.24,8.7c.29.23.56.48.82.74.14.22.43.29.66.16.25-.08.42-.31.41-.57V27.09c-6.18,18.87-11.29,34.43-15.34,46.68l-11.81,33.88c-3.72,6.29-8.83,9.43-15.34,9.43h-.25c-6.67,0-11.92-3.39-15.75-10.17-.87-1.59-9.79-28.19-26.74-79.82v81.38c.02,4.33-3.47,7.86-7.8,7.88-.03,0-.05,0-.08,0-2.12.03-4.16-.8-5.66-2.3-1.51-1.46-2.34-3.48-2.3-5.58V13.8c-.07-3.17.99-6.25,3-8.7,2.02-2.48,4.85-4.17,8-4.76,3.08-.73,6.33-.29,9.11,1.23,2.84,1.42,5.09,3.8,6.32,6.73.05.26.13.51.25.74,18.05,55.18,28.03,85.34,29.94,90.48.33.6.75,1.15,1.23,1.64.18.06.38.08.57.08.22,0,.45-.02.66-.08.52-.46.94-1.02,1.23-1.64,2-5.19,12-35.35,30-90.48.05-.26.13-.51.25-.74,1.22-2.91,3.42-5.29,6.23-6.73,2.82-1.5,6.09-1.92,9.19-1.18Z"/>
  <path class="cls-3" d="m85.34,893.09h-49.2l-5.6,16c-.4.7-1.1,1.1-1.9,1.1H2.14c-1.7,0-2.6-1.1-1.9-2.4l58.9-151.9c.6-1.1,1.9-1.5,3-.9.4.2.7.5.9.9l58.9,151.9c.7,1.3,0,2.4-1.7,2.4h-26.8c-.7,0-1.4-.4-1.7-1.1l-6.4-16Zm-39.7-25.4h30.4l-15.1-45.3-15.3,45.3Z"/>
  <path class="cls-3" d="m314.14,822.79c1,0,1.9.7,1.9,1.7v84.6c-.1,1-.9,1.7-1.9,1.7h-21.6c-1.1,0-2.2-.7-2.2-1.5l-.9-14c-10.1,11.6-25,17.9-40.4,17.1-40.7,0-72.7-28.2-72.7-77.5-1-41.8,32-76.4,73.7-77.5h2.2c20.1-.2,39.4,7.8,53.5,22.1.7.5.9,1.5.4,2.2-.1.1-.2.3-.4.4l-17.3,17.3c-.8.7-2,.7-2.8,0-8.8-8.9-20.7-13.9-33.2-14-25.9,0-47,18.3-47,49.8,0,34.7,21.1,49.8,47,49.8,13.3,0,25.9-5.8,34.7-15.7v-19.7h-24.2c-1.3,0-2.2-.7-2.2-1.5v-22.9c.1-1.1,1.1-1.8,2.2-1.7l51.2-.7Z"/>
  <path class="cls-3" d="m419.64,786.59v34.1h59.3c1,0,1.9.7,1.9,1.7v23.9c-.1,1-.9,1.7-1.9,1.7h-59.3v34.1h71.6c1.1-.1,2,.7,2.2,1.7v24.6c-.1,1.1-1.1,1.8-2.2,1.7h-98.4c-1.1.1-2-.7-2.2-1.7v-147.6c.1-1.1,1.1-1.8,2.2-1.7h96.4c1.1-.1,2,.7,2.2,1.7v24c-.1,1.1-1.1,1.8-2.2,1.7l-69.6.1Z"/>
  <path class="cls-3" d="m687.94,908.49c-.1,1.1-1.1,1.8-2.2,1.7h-24.8c-.4,0-1.5,0-1.7-.7l-69.5-99.7v98.4c-.1,1.1-1.1,1.8-2.2,1.7h-24.8c-1,0-1.9-.7-1.9-1.7v-147.4c.1-1,.9-1.7,1.9-1.7h25c.4,0,1.5,0,1.7.7l69.7,99.7v-98.6c.1-1.1,1.1-1.8,2.2-1.7h24.4c1.1-.1,2,.7,2.2,1.7v147.6Z"/>
  <path class="cls-3" d="m868.34,870.29c.9-.7,2.1-.7,3,0l17.3,17.5c.7.5.9,1.5.4,2.2-.1.1-.2.3-.4.4-14.1,14.3-33.4,22.2-53.5,22.1-41.9,0-76.1-30.2-76.1-77.5s31.7-77.5,76.1-77.5c20.1-.2,39.4,7.8,53.5,22.1.7.5.9,1.5.4,2.2-.1.1-.2.3-.4.4l-17.3,17.3c-.9.7-2.1.7-3,0-8.8-8.9-20.7-14-33.2-14-29.1,0-46.8,20.9-46.8,49.8,0,30.6,20.9,49.8,46.8,49.8,12.6-.2,24.6-5.6,33.2-14.8Z"/>
  <path class="cls-3" d="m1077.74,759.09c1.9,0,2.8,1.5,1.7,2.8l-55,77.2v69.3c-.1,1.1-1.1,1.8-2.2,1.7h-24.6c-1.1.1-2-.7-2.2-1.7v-69.3c-18.1-25.9-36.9-51.5-55-77.2-1.1-1.3,0-2.8,1.7-2.8h30c.4,0,1.5,0,1.7.7l36,50.3,36-50.3c0-.4,1.1-.7,1.5-.7h30.4Z"/>
</svg>