<svg id="Capa_1" data-name="Capa 1" xmlns="http://www.w3.org/2000/svg" xmlns:xlink="http://www.w3.org/1999/xlink" viewBox="0 0 1080 1080"><defs>
<style>
.cls-1{fill:url(#Degradado_sin_nombre);}
.path{fill:white;}
</style>
<linearGradient id="Degradado_sin_nombre" x1="831.11" y1="373.84" x2="238.12" y2="966.88" gradientTransform="matrix(1, 0, 0, -1, 0, 1082)" gradientUnits="userSpaceOnUse">
<stop offset="0" stop-color="#9f17ff"/><stop offset="0.5" stop-color="#ff2c96"/><stop offset="1" stop-color="#ff5f2e"/>
</linearGradient></defs>
<title>JUANSI-</title>
<path class="cls-1" d="M800,91.37a74.29,74.29,0,0,1,59.68,73.58V642a88.79,88.79,0,0,1-15.26,50.28,87.2,87.2,0,0,1-40.81,33.21A90,90,0,0,1,769.72,732a87.53,87.53,0,0,1-62.37-25.11L671.25,679l30.09-86.6L762.83,640a56.74,56.74,0,0,1,4.49,4,2.74,2.74,0,0,0,3.61.88,3.17,3.17,0,0,0,2.24-3.12V237.43Q722.45,392.25,689.25,492.8L624.64,678.15q-30.53,51.59-83.92,51.59h-1.37q-54.71,0-86.16-55.64-7.17-13-146.28-436.67v445.2a42.89,42.89,0,0,1-42.67,43.11h-.44a43.05,43.05,0,0,1-31-12.58,41.52,41.52,0,0,1-12.58-30.53V164.73a72.59,72.59,0,0,1,16.41-47.59,74,74,0,0,1,43.76-26,70.13,70.13,0,0,1,49.84,6.73,72.7,72.7,0,0,1,34.57,36.82,15.54,15.54,0,0,0,1.37,4q148.09,452.8,163.79,495a40.7,40.7,0,0,0,6.73,9,9.85,9.85,0,0,0,3.12.44,11.6,11.6,0,0,0,3.61-.44,27.9,27.9,0,0,0,6.73-9q16.41-42.62,164.12-495a15.74,15.74,0,0,1,1.37-4,73.09,73.09,0,0,1,34.08-36.82A71.56,71.56,0,0,1,800,91.37Z"/>
<path class="path" d="M90.76,971.65H42.13L36.65,987.4a2,2,0,0,1-1.91,1H8.54c-1.7,0-2.57-1-1.91-2.35L64.83,836a2.19,2.19,0,0,1,3.83,0l58.21,150.06c.66,1.26,0,2.35-1.7,2.35H98.75a1.91,1.91,0,0,1-1.7-1ZM51.53,946.48h30L66.63,901.73Z"/>
<path class="path" d="M316.91,902.17a1.86,1.86,0,0,1,1.91,1.7V987.4a1.86,1.86,0,0,1-1.91,1.7H295.58c-1.09,0-2.13-.66-2.13-1.48l-.88-13.84a49.24,49.24,0,0,1-39.88,16.85c-40.26,0-71.83-27.9-71.83-76.59a74.73,74.73,0,0,1,72.84-76.57q1.11,0,2.21,0a73.14,73.14,0,0,1,52.85,21.88,1.59,1.59,0,0,1,0,2.57L291.7,879a2.24,2.24,0,0,1-2.79,0,46.77,46.77,0,0,0-32.82-13.84c-25.6,0-46.45,18.11-46.45,49.24,0,34.3,20.9,49.24,46.45,49.24a46,46,0,0,0,34.3-15.54V928.65h-24c-1.26,0-2.13-.66-2.13-1.48V904.58a2,2,0,0,1,2.13-1.7Z"/>
<path class="path" d="M421.13,866.34V900h58.64a1.86,1.86,0,0,1,1.91,1.7v23.63a1.86,1.86,0,0,1-1.91,1.7H421.13v33.7h70.79a2,2,0,0,1,2.13,1.7v24.29a2,2,0,0,1-2.13,1.7H394.65a2,2,0,0,1-2.13-1.7V840.84a2,2,0,0,1,2.13-1.7H490a2,2,0,0,1,2.13,1.7v23.69a2,2,0,0,1-2.13,1.7Z"/>
<path class="path" d="M686.24,986.8a2,2,0,0,1-2.13,1.7H659.59c-.44,0-1.48,0-1.7-.66l-68.66-98.47v97.21a2,2,0,0,1-2.13,1.7H562.6a1.86,1.86,0,0,1-1.91-1.7V840.84a1.86,1.86,0,0,1,1.91-1.7h24.73c.44,0,1.48,0,1.7.66l68.88,98.47V840.84a2,2,0,0,1,2.13-1.7H684.1a2,2,0,0,1,2.13,1.7Z"/>
<path class="path" d="M864.47,949.05a2.57,2.57,0,0,1,3,0l17.07,17.29a1.59,1.59,0,0,1,0,2.57,73.85,73.85,0,0,1-52.85,21.88c-41.36,0-75.22-29.81-75.22-76.59,0-45,31.35-76.59,75.22-76.59a73.14,73.14,0,0,1,52.85,21.88,1.59,1.59,0,0,1,0,2.57l-17.07,17.07a2.57,2.57,0,0,1-3,0,46.28,46.28,0,0,0-32.82-13.84c-28.78,0-46.28,20.68-46.28,49.24,0,30.25,20.68,49.24,46.28,49.24A46.28,46.28,0,0,0,864.47,949.05Z"/>
<path class="path" d="M1071.42,839.26c1.91,0,2.79,1.48,1.7,2.79l-54.38,76.32V986.8a2,2,0,0,1-2.13,1.7H992.32a2,2,0,0,1-2.13-1.7V918.36c-17.89-25.6-36.43-50.93-54.38-76.32-1-1.26,0-2.79,1.7-2.79h29.65c.44,0,1.48,0,1.7.66l35.61,49.67,35.61-49.67c0-.44,1.09-.66,1.48-.66Z"/></svg>